<svg viewBox="0 0 800 600" height="600" width="800" xmlns="http://www.w3.org/2000/svg" version="1.1"><g transform-origin="center" transform="scale(1, 1) rotate(0)"><rect x="0" y="0" width="800" height="600" fill="#77acf100"></rect><linearGradient id="linear-gradient-r7"><stop offset="0%" stop-color="#ee5858ff" stop-opacity="100%"></stop><stop offset="100%" stop-color="#f9a528ff" stop-opacity="100%"></stop></linearGradient><filter id="shadow-r7" x="0" width="100%" y="-20%" height="150%"><feDropShadow dx="0" dy="0" stdDeviation="10" flood-color="#00000061"></feDropShadow></filter><path d="M0 0 0,303.14376142341644 C 6.76923076923077,304.018533444393 48,309.96473814346825 61.53846153846154,311.09623434138484 C 75.07692307692308,312.22773053930143 109.53846153846155,311.3386246023001 123.07692307692308,313.43009049538523 C 136.6153846153846,315.52155638847034 171.07692307692307,328.21676895233105 184.6153846153846,330.1095606421586 C 198.15384615384616,332.0023523319862 232.6153846153846,331.9310263193096 246.15384615384616,330.6372876756359 C 259.6923076923077,329.3435490319622 294.15384615384613,318.01714986079605 307.6923076923077,318.34830024512485 C 321.2307692307692,318.67945062945364 355.6923076923077,332.6809119742131 369.2307692307692,333.64774571498856 C 382.7692307692308,334.61457945576404 417.2307692307692,329.12501776178834 430.7692307692308,327.13769788853824 C 444.3076923076923,325.15037801528814 478.7692307692308,314.4714071765775 492.3076923076923,315.581201412715 C 505.84615384615387,316.69099564885255 540.3076923076923,334.56890926319176 553.8461538461538,337.22673639887944 C 567.3846153846154,339.8845635345671 601.8461538461538,341.15432725762946 615.3846153846154,339.74326628260314 C 628.9230769230769,338.3322053075768 663.3846153846154,328.14147611787774 676.9230769230769,324.39890935318545 C 690.4615384615385,320.65634258849315 724.9230769230769,303.5755175803439 738.4615384615385,305.7199320581276 C 752,307.8643465359113 793.2307692307693,339.6944844437065 800,343.89358642394654 L800 600 L0 600Z" fill="none" stroke-linecap="round" stroke-width="15.5" style="transition: all 0.4s cubic-bezier(0.16, 1, 0.3, 1) 0s; fill: url(&quot;#linear-gradient-r7&quot;);" filter="url(#shadow-r7)"></path><path d="M0 0 0,434.75312320437905 C 6.769230769230769,433.8200163492545 48,428.8598716289969 61.53846153846154,426.2703336123377 C 75.07692307692308,423.6807955956785 109.53846153846155,409.7657729876616 123.07692307692308,411.21186850747716 C 136.6153846153846,412.65796402729273 171.07692307692307,435.9534272217347 184.6153846153846,439.416656519752 C 198.15384615384616,442.87988581776926 232.6153846153846,444.5344264266081 246.15384615384616,442.6957712167253 C 259.6923076923077,440.8571160068425 294.15384615384613,427.5782870626892 307.6923076923077,422.70160915718105 C 321.2307692307692,417.8249312516729 355.6923076923077,395.5680986652966 369.2307692307692,398.3623357121057 C 382.7692307692308,401.15657275891476 417.2307692307692,445.15739192644446 430.7692307692308,448.10376412817277 C 444.3076923076923,451.0501363299011 478.7692307692308,426.17822291315144 492.3076923076923,425.1475375459995 C 505.84615384615387,424.1168521788476 540.3076923076923,441.4108292746241 553.8461538461538,438.7338971540642 C 567.3846153846154,436.0569650335043 601.8461538461538,403.09676078159055 615.3846153846154,400.81179099545506 C 628.9230769230769,398.52682120931956 663.3846153846154,413.97866774634457 676.9230769230769,417.9614445528326 C 690.4615384615385,421.9442213593206 724.9230769230769,435.60412203257437 738.4615384615385,437.01885287261877 C 752,438.43358371266316 793.2307692307693,431.50421808291384 800,430.82263400778174 L800 600 L0 600Z" fill="none" stroke-linecap="round" filter="url(#shadow-r7)" stroke-width="15.5" style="transition: all 0.4s cubic-bezier(0.16, 1, 0.3, 1) 0s; fill: url(&quot;#linear-gradient-r7&quot;);"></path><path d="M0 0 0,491.0047393660837 C 6.769230769230771,497.7487516373784 48,548.6823667930595 61.53846153846154,552.313941832399 C 75.07692307692308,555.9455168717385 109.53846153846155,525.2894375441169 123.07692307692308,524.0190579055343 C 136.6153846153846,522.7486782669516 171.07692307692307,544.0645105012809 184.6153846153846,540.7650360271024 C 198.15384615384616,537.4655615529239 232.6153846153846,496.8401935214953 246.15384615384616,494.0238354130027 C 259.6923076923077,491.2074773045101 294.15384615384613,510.25277652456424 307.6923076923077,515.1617804953518 C 321.2307692307692,520.0707844661393 355.6923076923077,536.9074062261963 369.2307692307692,538.651144238344 C 382.7692307692308,540.3948822504918 417.2307692307692,532.9054982947962 430.7692307692308,531.0139442421496 C 444.3076923076923,529.122390189503 478.7692307692308,522.2614619687704 492.3076923076923,521.4551983051933 C 505.84615384615387,520.6489346416163 540.3076923076923,525.5562328784299 553.8461538461538,523.6842745732671 C 567.3846153846154,521.8123162681043 601.8461538461538,500.23060781962704 615.3846153846154,504.43739553098567 C 628.9230769230769,508.6441832423443 663.3846153846154,557.4421574693716 676.9230769230769,561.9277992219819 C 690.4615384615385,566.4134409745922 724.9230769230769,549.8197620265457 738.4615384615385,545.2159569183519 C 752,540.6121518101581 793.2307692307693,522.8405279659239 800,520.0750255111294 L800 600 L0 600Z" fill="none" stroke-linecap="round" filter="url(#shadow-r7)" stroke-width="15.5" style="transition: all 0.4s cubic-bezier(0.16, 1, 0.3, 1) 0s; fill: url(&quot;#linear-gradient-r7&quot;);"></path></g></svg>