<svg id="visual" viewBox="0 0 900 600" width="900" height="600" xmlns="http://www.w3.org/2000/svg" xmlns:xlink="http://www.w3.org/1999/xlink" version="1.1"><rect x="0" y="0" width="900" height="600" fill="#a9cbe5"></rect><path d="M0 416L21.5 416.2C43 416.3 86 416.7 128.8 421.7C171.7 426.7 214.3 436.3 257.2 427.2C300 418 343 390 385.8 390.3C428.7 390.7 471.3 419.3 514.2 428.8C557 438.3 600 428.7 642.8 428.5C685.7 428.3 728.3 437.7 771.2 431.2C814 424.7 857 402.3 878.5 391.2L900 380L900 601L878.5 601C857 601 814 601 771.2 601C728.3 601 685.7 601 642.8 601C600 601 557 601 514.2 601C471.3 601 428.7 601 385.8 601C343 601 300 601 257.2 601C214.3 601 171.7 601 128.8 601C86 601 43 601 21.5 601L0 601Z" fill="#f9a546"></path><path d="M0 416L21.5 419.3C43 422.7 86 429.3 128.8 437.8C171.7 446.3 214.3 456.7 257.2 455.5C300 454.3 343 441.7 385.8 431.5C428.7 421.3 471.3 413.7 514.2 418.2C557 422.7 600 439.3 642.8 444.3C685.7 449.3 728.3 442.7 771.2 439.8C814 437 857 438 878.5 438.5L900 439L900 601L878.5 601C857 601 814 601 771.2 601C728.3 601 685.7 601 642.8 601C600 601 557 601 514.2 601C471.3 601 428.7 601 385.8 601C343 601 300 601 257.2 601C214.3 601 171.7 601 128.8 601C86 601 43 601 21.5 601L0 601Z" fill="#f99246"></path><path d="M0 452L21.5 452.2C43 452.3 86 452.7 128.8 454.8C171.7 457 214.3 461 257.2 469.5C300 478 343 491 385.8 490.7C428.7 490.3 471.3 476.7 514.2 477.3C557 478 600 493 642.8 495C685.7 497 728.3 486 771.2 482.2C814 478.3 857 481.7 878.5 483.3L900 485L900 601L878.5 601C857 601 814 601 771.2 601C728.3 601 685.7 601 642.8 601C600 601 557 601 514.2 601C471.3 601 428.7 601 385.8 601C343 601 300 601 257.2 601C214.3 601 171.7 601 128.8 601C86 601 43 601 21.5 601L0 601Z" fill="#f77e4a"></path><path d="M0 505L21.5 505.2C43 505.3 86 505.7 128.8 510.2C171.7 514.7 214.3 523.3 257.2 527.7C300 532 343 532 385.8 530.2C428.7 528.3 471.3 524.7 514.2 522C557 519.3 600 517.7 642.8 515C685.7 512.3 728.3 508.7 771.2 508.8C814 509 857 513 878.5 515L900 517L900 601L878.5 601C857 601 814 601 771.2 601C728.3 601 685.7 601 642.8 601C600 601 557 601 514.2 601C471.3 601 428.7 601 385.8 601C343 601 300 601 257.2 601C214.3 601 171.7 601 128.8 601C86 601 43 601 21.5 601L0 601Z" fill="#f36a50"></path><path d="M0 527L21.5 526.5C43 526 86 525 128.8 526.5C171.7 528 214.3 532 257.2 535.5C300 539 343 542 385.8 548.3C428.7 554.7 471.3 564.3 514.2 566.8C557 569.3 600 564.7 642.8 564.5C685.7 564.3 728.3 568.7 771.2 568.3C814 568 857 563 878.5 560.5L900 558L900 601L878.5 601C857 601 814 601 771.2 601C728.3 601 685.7 601 642.8 601C600 601 557 601 514.2 601C471.3 601 428.7 601 385.8 601C343 601 300 601 257.2 601C214.3 601 171.7 601 128.8 601C86 601 43 601 21.5 601L0 601Z" fill="#ec5757"></path></svg>